<svg preserveAspectRatio="none" width="100%" height="100%" overflow="visible" style="display: block;" viewBox="0 0 1995.03 1481.48" fill="none" xmlns="http://www.w3.org/2000/svg">
<g id="background">
<path id="Rectangle 30" d="M246.92 214.847H500.855C500.855 214.847 468.49 280.693 468.49 325.998C468.49 371.304 500.855 391.844 500.855 437.15C500.855 482.455 468.49 502.995 468.49 548.301C468.49 593.607 500.855 614.146 500.855 659.452C500.855 704.758 468.49 725.298 468.49 770.603C468.49 815.909 500.855 836.449 500.855 881.754C500.855 927.06 468.49 947.6 468.49 992.906C468.49 1038.21 500.855 1104.06 500.855 1104.06H246.92C246.92 1104.06 214.556 1038.21 214.556 992.906C214.556 947.6 246.92 927.06 246.92 881.754C246.92 836.449 214.556 815.909 214.556 770.603C214.556 725.298 246.92 704.758 246.92 659.452C246.92 614.146 214.556 593.607 214.556 548.301C214.556 502.995 246.92 482.455 246.92 437.15C246.92 391.844 214.556 371.304 214.556 325.998C214.556 280.693 246.92 214.847 246.92 214.847Z" fill="var(--fill-0, #BEB317)"/>
<path id="Rectangle 25" d="M735.816 832.798H898.368C898.368 832.798 877.651 875.619 877.651 905.082C877.651 934.545 898.368 947.902 898.368 977.366C898.368 1006.83 877.651 1020.19 877.651 1049.65C877.651 1079.11 898.368 1092.47 898.368 1121.93C898.368 1151.4 877.651 1164.75 877.651 1194.22C877.651 1223.68 898.368 1237.04 898.368 1266.5C898.368 1295.96 877.651 1309.32 877.651 1338.78C877.651 1368.25 898.368 1411.07 898.368 1411.07H735.816C735.816 1411.07 715.098 1368.25 715.098 1338.78C715.098 1309.32 735.816 1295.96 735.816 1266.5C735.816 1237.04 715.098 1223.68 715.098 1194.22C715.098 1164.75 735.816 1151.4 735.816 1121.93C735.816 1092.47 715.098 1079.11 715.098 1049.65C715.098 1020.19 735.816 1006.83 735.816 977.366C735.816 947.902 715.098 934.545 715.098 905.082C715.098 875.619 735.816 832.798 735.816 832.798Z" fill="var(--fill-0, #00FFC4)"/>
<path id="Rectangle 31" d="M1110.22 903.211H1272.77C1272.77 903.211 1252.05 946.031 1252.05 975.494C1252.05 1004.96 1272.77 1018.32 1272.77 1047.78C1272.77 1077.24 1252.05 1090.6 1252.05 1120.06C1252.05 1149.53 1272.77 1162.88 1272.77 1192.35C1272.77 1221.81 1252.05 1235.17 1252.05 1264.63C1252.05 1294.09 1272.77 1307.45 1272.77 1336.91C1272.77 1366.38 1252.05 1379.73 1252.05 1409.2C1252.05 1438.66 1272.77 1481.48 1272.77 1481.48H1110.22C1110.22 1481.48 1089.5 1438.66 1089.5 1409.2C1089.5 1379.73 1110.22 1366.38 1110.22 1336.91C1110.22 1307.45 1089.5 1294.09 1089.5 1264.63C1089.5 1235.17 1110.22 1221.81 1110.22 1192.35C1110.22 1162.88 1089.5 1149.53 1089.5 1120.06C1089.5 1090.6 1110.22 1077.24 1110.22 1047.78C1110.22 1018.32 1089.5 1004.96 1089.5 975.494C1089.5 946.031 1110.22 903.211 1110.22 903.211Z" fill="var(--fill-0, #00FFC4)"/>
<path id="Rectangle 27" d="M1338.36 749.19H1500.91C1500.91 749.19 1480.2 792.011 1480.2 821.474C1480.2 850.937 1500.91 864.294 1500.91 893.758C1500.91 923.221 1480.2 936.578 1480.2 966.041C1480.2 995.505 1500.91 1008.86 1500.91 1038.33C1500.91 1067.79 1480.2 1081.15 1480.2 1110.61C1480.2 1140.07 1500.91 1153.43 1500.91 1182.89C1500.91 1212.36 1480.2 1225.71 1480.2 1255.18C1480.2 1284.64 1500.91 1327.46 1500.91 1327.46H1338.36C1338.36 1327.46 1317.64 1284.64 1317.64 1255.18C1317.64 1225.71 1338.36 1212.36 1338.36 1182.89C1338.36 1153.43 1317.64 1140.07 1317.64 1110.61C1317.64 1081.15 1338.36 1067.79 1338.36 1038.33C1338.36 1008.86 1317.64 995.505 1317.64 966.041C1317.64 936.578 1338.36 923.221 1338.36 893.758C1338.36 864.295 1317.64 850.937 1317.64 821.474C1317.64 792.011 1338.36 749.19 1338.36 749.19Z" fill="var(--fill-0, #BEB317)"/>
<path id="Rectangle 24" d="M384.024 546.826H590.527C590.527 546.826 564.208 601.224 564.208 638.653C564.208 676.083 590.527 693.052 590.527 730.481C590.527 767.91 564.208 784.879 564.208 822.308C564.208 859.737 590.527 876.706 590.527 914.136C590.527 951.565 564.208 968.534 564.208 1005.96C564.208 1043.39 590.527 1060.36 590.527 1097.79C590.527 1135.22 564.208 1152.19 564.208 1189.62C564.208 1227.05 590.527 1281.45 590.527 1281.45H384.024C384.024 1281.45 357.705 1227.05 357.705 1189.62C357.705 1152.19 384.024 1135.22 384.024 1097.79C384.024 1060.36 357.705 1043.39 357.705 1005.96C357.705 968.534 384.024 951.565 384.024 914.136C384.024 876.706 357.705 859.737 357.705 822.308C357.705 784.879 384.024 767.91 384.024 730.481C384.024 693.052 357.705 676.083 357.705 638.653C357.705 601.224 384.024 546.826 384.024 546.826Z" fill="var(--fill-0, #06B2A4)"/>
<path id="Rectangle 29" d="M1518.71 358.658H1658.3C1658.3 358.658 1640.51 413.057 1640.51 450.486C1640.51 487.915 1658.3 504.884 1658.3 542.313C1658.3 579.743 1640.51 596.712 1640.51 634.141C1640.51 671.57 1658.3 688.539 1658.3 725.968C1658.3 763.397 1640.51 780.366 1640.51 817.796C1640.51 855.225 1658.3 872.194 1658.3 909.623C1658.3 947.052 1640.51 964.021 1640.51 1001.45C1640.51 1038.88 1658.3 1093.28 1658.3 1093.28H1518.71C1518.71 1093.28 1500.91 1038.88 1500.91 1001.45C1500.91 964.021 1518.71 947.052 1518.71 909.623C1518.71 872.194 1500.91 855.225 1500.91 817.796C1500.91 780.366 1518.71 763.397 1518.71 725.968C1518.71 688.539 1500.91 671.57 1500.91 634.141C1500.91 596.712 1518.71 579.743 1518.71 542.313C1518.71 504.884 1500.91 487.915 1500.91 450.486C1500.91 413.057 1518.71 358.658 1518.71 358.658Z" fill="var(--fill-0, #06B2A4)"/>
<path id="Rectangle 17" d="M32.3642 0H286.299C286.299 0 253.935 82.2489 253.935 138.841C253.935 195.433 286.299 221.09 286.299 277.682C286.299 334.275 253.935 359.931 253.935 416.523C253.935 473.116 286.299 498.772 286.299 555.365C286.299 611.957 253.935 637.614 253.935 694.206C253.935 750.798 286.299 776.455 286.299 833.047C286.299 889.639 253.935 915.296 253.935 971.888C253.935 1028.48 286.299 1110.73 286.299 1110.73H32.3642C32.3642 1110.73 -6.42926e-06 1028.48 0 971.888C6.42926e-06 915.296 32.3642 889.639 32.3642 833.047C32.3642 776.455 6.42926e-06 750.798 0 694.206C-6.42926e-06 637.614 32.3642 611.957 32.3642 555.365C32.3642 498.772 0 473.116 0 416.523C0 359.931 32.3642 334.275 32.3642 277.682C32.3642 221.09 0 195.433 0 138.841C0 82.2489 32.3642 0 32.3642 0Z" fill="var(--fill-0, #00FFC4)"/>
<path id="Rectangle 19" d="M1741.09 0H1995.03C1995.03 0 1962.66 82.2489 1962.66 138.841C1962.66 195.433 1995.03 221.09 1995.03 277.682C1995.03 334.275 1962.66 359.931 1962.66 416.523C1962.66 473.116 1995.03 498.772 1995.03 555.365C1995.03 611.957 1962.66 637.614 1962.66 694.206C1962.66 750.798 1995.03 776.455 1995.03 833.047C1995.03 889.639 1962.66 915.296 1962.66 971.888C1962.66 1028.48 1995.03 1110.73 1995.03 1110.73H1741.09C1741.09 1110.73 1708.73 1028.48 1708.73 971.888C1708.73 915.296 1741.09 889.639 1741.09 833.047C1741.09 776.455 1708.73 750.798 1708.73 694.206C1708.73 637.614 1741.09 611.957 1741.09 555.365C1741.09 498.772 1708.73 473.116 1708.73 416.523C1708.73 359.931 1741.09 334.275 1741.09 277.682C1741.09 221.09 1708.73 195.433 1708.73 138.841C1708.73 82.2489 1741.09 0 1741.09 0Z" fill="var(--fill-0, #00FFC4)"/>
<path id="Rectangle 18" d="M1597.94 244.715H1851.88C1851.88 244.715 1819.52 308.843 1819.52 352.966C1819.52 397.09 1851.88 417.094 1851.88 461.218C1851.88 505.342 1819.52 525.346 1819.52 569.47C1819.52 613.594 1851.88 633.598 1851.88 677.722C1851.88 721.846 1819.52 741.85 1819.52 785.974C1819.52 830.098 1851.88 850.102 1851.88 894.226C1851.88 938.349 1819.52 958.353 1819.52 1002.48C1819.52 1046.6 1851.88 1110.73 1851.88 1110.73H1597.94C1597.94 1110.73 1565.58 1046.6 1565.58 1002.48C1565.58 958.353 1597.94 938.349 1597.94 894.226C1597.94 850.102 1565.58 830.098 1565.58 785.974C1565.58 741.85 1597.94 721.846 1597.94 677.722C1597.94 633.598 1565.58 613.594 1565.58 569.47C1565.58 525.346 1597.94 505.342 1597.94 461.218C1597.94 417.094 1565.58 397.09 1565.58 352.966C1565.58 308.843 1597.94 244.715 1597.94 244.715Z" fill="var(--fill-0, #FFFF00)"/>
<path id="Rectangle 21" d="M503.903 722.524H666.455C666.455 722.524 645.738 765.344 645.738 794.807C645.738 824.271 666.455 837.628 666.455 867.091C666.455 896.554 645.738 909.912 645.738 939.375C645.738 968.838 666.455 982.195 666.455 1011.66C666.455 1041.12 645.738 1054.48 645.738 1083.94C645.738 1113.41 666.455 1126.76 666.455 1156.23C666.455 1185.69 645.738 1199.05 645.738 1228.51C645.738 1257.97 666.455 1300.79 666.455 1300.79H503.903C503.903 1300.79 483.185 1257.97 483.185 1228.51C483.185 1199.05 503.903 1185.69 503.903 1156.23C503.903 1126.76 483.185 1113.41 483.185 1083.94C483.185 1054.48 503.903 1041.12 503.903 1011.66C503.903 982.195 483.185 968.838 483.185 939.375C483.185 909.912 503.903 896.554 503.903 867.091C503.903 837.628 483.185 824.271 483.185 794.807C483.185 765.344 503.903 722.524 503.903 722.524Z" fill="var(--fill-0, #00FFC4)"/>
<path id="Rectangle 26" d="M1465.8 578.425H1628.35C1628.35 578.425 1607.63 621.245 1607.63 650.708C1607.63 680.171 1628.35 693.529 1628.35 722.992C1628.35 752.455 1607.63 765.813 1607.63 795.276C1607.63 824.739 1628.35 838.096 1628.35 867.559C1628.35 897.023 1607.63 910.38 1607.63 939.843C1607.63 969.306 1628.35 982.664 1628.35 1012.13C1628.35 1041.59 1607.63 1054.95 1607.63 1084.41C1607.63 1113.87 1628.35 1156.69 1628.35 1156.69H1465.8C1465.8 1156.69 1445.08 1113.87 1445.08 1084.41C1445.08 1054.95 1465.8 1041.59 1465.8 1012.13C1465.8 982.664 1445.08 969.306 1445.08 939.843C1445.08 910.38 1465.8 897.023 1465.8 867.559C1465.8 838.096 1445.08 824.739 1445.08 795.276C1445.08 765.813 1465.8 752.455 1465.8 722.992C1465.8 693.529 1445.08 680.171 1445.08 650.708C1445.08 621.245 1465.8 578.425 1465.8 578.425Z" fill="var(--fill-0, #00FFC4)"/>
<path id="Rectangle 22" d="M634.137 777.36H796.69C796.69 777.36 775.973 820.18 775.973 849.643C775.973 879.106 796.69 892.464 796.69 921.927C796.69 951.39 775.973 964.748 775.973 994.211C775.973 1023.67 796.69 1037.03 796.69 1066.49C796.69 1095.96 775.973 1109.32 775.973 1138.78C775.973 1168.24 796.69 1181.6 796.69 1211.06C796.69 1240.53 775.973 1253.88 775.973 1283.35C775.973 1312.81 796.69 1355.63 796.69 1355.63H634.137C634.137 1355.63 613.42 1312.81 613.42 1283.35C613.42 1253.88 634.137 1240.53 634.137 1211.06C634.137 1181.6 613.42 1168.24 613.42 1138.78C613.42 1109.32 634.137 1095.96 634.137 1066.49C634.137 1037.03 613.42 1023.67 613.42 994.211C613.42 964.748 634.137 951.39 634.137 921.927C634.137 892.464 613.42 879.106 613.42 849.643C613.42 820.18 634.137 777.36 634.137 777.36Z" fill="var(--fill-0, #FFFF00)"/>
<path id="Rectangle 28" d="M1211.41 836.468H1373.96C1373.96 836.468 1353.24 879.289 1353.24 908.752C1353.24 938.215 1373.96 951.572 1373.96 981.035C1373.96 1010.5 1353.24 1023.86 1353.24 1053.32C1353.24 1082.78 1373.96 1096.14 1373.96 1125.6C1373.96 1155.07 1353.24 1168.42 1353.24 1197.89C1353.24 1227.35 1373.96 1240.71 1373.96 1270.17C1373.96 1299.63 1353.24 1312.99 1353.24 1342.45C1353.24 1371.92 1373.96 1414.74 1373.96 1414.74H1211.41C1211.41 1414.74 1190.69 1371.92 1190.69 1342.45C1190.69 1312.99 1211.41 1299.63 1211.41 1270.17C1211.41 1240.71 1190.69 1227.35 1190.69 1197.89C1190.69 1168.42 1211.41 1155.07 1211.41 1125.6C1211.41 1096.14 1190.69 1082.78 1190.69 1053.32C1190.69 1023.86 1211.41 1010.5 1211.41 981.035C1211.41 951.572 1190.69 938.215 1190.69 908.752C1190.69 879.289 1211.41 836.468 1211.41 836.468Z" fill="var(--fill-0, #FFFF00)"/>
<g id="Frame 53">
<path id="Vector" d="M1692.88 234.576C1695.82 268.955 1653.28 300.436 1599.7 305.23C1545.08 309.59 1498.18 286.449 1495.25 252.071C1492.32 217.692 1534.32 178.619 1588.43 181.416C1645.69 185.517 1689.52 201.245 1692.88 234.576Z" fill="var(--fill-0, #FF00CF)"/>
<path id="Vector 7" d="M1790.58 170.569L1666.91 223.422L1667.57 265.085L1790.13 309.008L1790.58 170.569Z" fill="var(--fill-0, #FF00CF)"/>
</g>
<g id="Frame 54">
<path id="Vector_2" d="M461.827 370.66C459.241 400.983 496.761 428.751 544.015 432.98C592.194 436.825 633.56 416.414 636.146 386.091C638.733 355.768 601.685 321.304 553.958 323.771C503.459 327.388 464.797 341.261 461.827 370.66Z" fill="var(--fill-0, #FF00CF)"/>
<path id="Vector 7_2" d="M375.655 314.204L484.739 360.822L484.159 397.571L376.054 436.312L375.655 314.204Z" fill="var(--fill-0, #FF00CF)"/>
</g>
<path id="Rectangle 16" d="M180.608 358.658H434.543C434.543 358.658 402.178 422.786 402.178 466.91C402.178 511.034 434.543 531.038 434.543 575.162C434.543 619.286 402.178 639.29 402.178 683.414C402.178 727.538 434.543 747.542 434.543 791.666C434.543 835.79 402.178 855.794 402.178 899.918C402.178 944.041 434.543 964.046 434.543 1008.17C434.543 1052.29 402.178 1072.3 402.178 1116.42C402.178 1160.55 434.543 1224.67 434.543 1224.67H180.608C180.608 1224.67 148.244 1160.55 148.244 1116.42C148.244 1072.3 180.608 1052.29 180.608 1008.17C180.608 964.046 148.244 944.041 148.244 899.918C148.244 855.794 180.608 835.79 180.608 791.666C180.608 747.542 148.244 727.538 148.244 683.414C148.244 639.29 180.608 619.286 180.608 575.162C180.608 531.038 148.244 511.034 148.244 466.91C148.244 422.786 180.608 358.658 180.608 358.658Z" fill="var(--fill-0, #FFFF00)"/>
<circle id="Ellipse 17" cx="597.19" cy="279.545" r="16.2299" fill="var(--fill-0, #00FFC4)"/>
<circle id="Ellipse 20" cx="1497.16" cy="164.18" r="16.2299" fill="var(--fill-0, #00FFC4)"/>
<circle id="Ellipse 18" cx="561.601" cy="221.496" r="11.949" fill="var(--fill-0, #00FFC4)"/>
<circle id="Ellipse 21" cx="1536.72" cy="97.2098" r="11.949" fill="var(--fill-0, #00FFC4)"/>
<ellipse id="Ellipse 19" cx="605.192" cy="170.537" rx="8.00195" ry="9.16443" fill="var(--fill-0, #00FFC4)"/>
<ellipse id="Ellipse 22" cx="1497.16" cy="54.7577" rx="8.00195" ry="9.16443" fill="var(--fill-0, #00FFC4)"/>
</g>
</svg>
