<svg width="1920" height="1080" viewBox="0 0 1920 1080" fill="none" xmlns="http://www.w3.org/2000/svg">
<mask id="mask0_316_125" style="mask-type:alpha" maskUnits="userSpaceOnUse" x="0" y="0" width="1920" height="1080">
<rect width="1920" height="1080" fill="#D9D9D9"/>
</mask>
<g mask="url(#mask0_316_125)">
<path d="M204.628 189.073H458.562C458.562 189.073 426.198 254.918 426.198 300.224C426.198 345.53 458.562 366.069 458.562 411.375C458.562 456.681 426.198 477.221 426.198 522.526C426.198 567.832 458.562 588.372 458.562 633.677C458.562 678.983 426.198 699.523 426.198 744.829C426.198 790.134 458.562 810.674 458.562 855.98C458.562 901.286 426.198 921.825 426.198 967.131C426.198 1012.44 458.562 1078.28 458.562 1078.28H204.628C204.628 1078.28 172.264 1012.44 172.264 967.131C172.264 921.825 204.628 901.286 204.628 855.98C204.628 810.674 172.264 790.134 172.264 744.829C172.264 699.523 204.628 678.983 204.628 633.677C204.628 588.372 172.264 567.832 172.264 522.526C172.264 477.221 204.628 456.681 204.628 411.375C204.628 366.069 172.264 345.53 172.264 300.224C172.264 254.918 204.628 189.073 204.628 189.073Z" fill="#BEB317"/>
<path d="M693.524 807.023H856.077C856.077 807.023 835.359 849.844 835.359 879.307C835.359 908.77 856.077 922.128 856.077 951.591C856.077 981.054 835.359 994.411 835.359 1023.87C835.359 1053.34 856.077 1066.7 856.077 1096.16C856.077 1125.62 835.359 1138.98 835.359 1168.44C835.359 1197.91 856.077 1211.26 856.077 1240.73C856.077 1270.19 835.359 1283.55 835.359 1313.01C835.359 1342.47 856.077 1385.29 856.077 1385.29H693.524C693.524 1385.29 672.807 1342.47 672.807 1313.01C672.807 1283.55 693.524 1270.19 693.524 1240.73C693.524 1211.26 672.807 1197.91 672.807 1168.44C672.807 1138.98 693.524 1125.62 693.524 1096.16C693.524 1066.7 672.807 1053.34 672.807 1023.87C672.807 994.411 693.524 981.054 693.524 951.591C693.524 922.128 672.807 908.77 672.807 879.307C672.807 849.844 693.524 807.023 693.524 807.023Z" fill="#00FFC4"/>
<path d="M1067.93 877.436H1230.48C1230.48 877.436 1209.76 920.257 1209.76 949.72C1209.76 979.183 1230.48 992.54 1230.48 1022C1230.48 1051.47 1209.76 1064.82 1209.76 1094.29C1209.76 1123.75 1230.48 1137.11 1230.48 1166.57C1230.48 1196.03 1209.76 1209.39 1209.76 1238.85C1209.76 1268.32 1230.48 1281.68 1230.48 1311.14C1230.48 1340.6 1209.76 1353.96 1209.76 1383.42C1209.76 1412.89 1230.48 1455.71 1230.48 1455.71H1067.93C1067.93 1455.71 1047.21 1412.89 1047.21 1383.42C1047.21 1353.96 1067.93 1340.6 1067.93 1311.14C1067.93 1281.68 1047.21 1268.32 1047.21 1238.85C1047.21 1209.39 1067.93 1196.03 1067.93 1166.57C1067.93 1137.11 1047.21 1123.75 1047.21 1094.29C1047.21 1064.82 1067.93 1051.47 1067.93 1022C1067.93 992.54 1047.21 979.183 1047.21 949.72C1047.21 920.257 1067.93 877.436 1067.93 877.436Z" fill="#00FFC4"/>
<path d="M1296.07 723.416H1458.62C1458.62 723.416 1437.91 766.236 1437.91 795.699C1437.91 825.162 1458.62 838.52 1458.62 867.983C1458.62 897.446 1437.91 910.804 1437.91 940.267C1437.91 969.73 1458.62 983.087 1458.62 1012.55C1458.62 1042.01 1437.91 1055.37 1437.91 1084.83C1437.91 1114.3 1458.62 1127.65 1458.62 1157.12C1458.62 1186.58 1437.91 1199.94 1437.91 1229.4C1437.91 1258.86 1458.62 1301.69 1458.62 1301.69H1296.07C1296.07 1301.69 1275.35 1258.86 1275.35 1229.4C1275.35 1199.94 1296.07 1186.58 1296.07 1157.12C1296.07 1127.65 1275.35 1114.3 1275.35 1084.83C1275.35 1055.37 1296.07 1042.01 1296.07 1012.55C1296.07 983.087 1275.35 969.73 1275.35 940.267C1275.35 910.804 1296.07 897.446 1296.07 867.983C1296.07 838.52 1275.35 825.162 1275.35 795.699C1275.35 766.236 1296.07 723.416 1296.07 723.416Z" fill="#BEB317"/>
<path d="M341.732 521.051H548.235C548.235 521.051 521.916 575.449 521.916 612.879C521.916 650.308 548.235 667.277 548.235 704.706C548.235 742.135 521.916 759.104 521.916 796.534C521.916 833.963 548.235 850.932 548.235 888.361C548.235 925.79 521.916 942.759 521.916 980.188C521.916 1017.62 548.235 1034.59 548.235 1072.02C548.235 1109.45 521.916 1126.41 521.916 1163.84C521.916 1201.27 548.235 1255.67 548.235 1255.67H341.732C341.732 1255.67 315.413 1201.27 315.413 1163.84C315.413 1126.41 341.732 1109.45 341.732 1072.02C341.732 1034.59 315.413 1017.62 315.413 980.188C315.413 942.759 341.732 925.79 341.732 888.361C341.732 850.932 315.413 833.963 315.413 796.534C315.413 759.104 341.732 742.135 341.732 704.706C341.732 667.277 315.413 650.308 315.413 612.879C315.413 575.449 341.732 521.051 341.732 521.051Z" fill="#06B2A4"/>
<path d="M1476.41 332.884H1616.01C1616.01 332.884 1598.22 387.282 1598.22 424.711C1598.22 462.14 1616.01 479.109 1616.01 516.539C1616.01 553.968 1598.22 570.937 1598.22 608.366C1598.22 645.795 1616.01 662.764 1616.01 700.194C1616.01 737.623 1598.22 754.592 1598.22 792.021C1598.22 829.45 1616.01 846.419 1616.01 883.848C1616.01 921.278 1598.22 938.247 1598.22 975.676C1598.22 1013.11 1616.01 1067.5 1616.01 1067.5H1476.41C1476.41 1067.5 1458.62 1013.11 1458.62 975.676C1458.62 938.247 1476.41 921.278 1476.41 883.848C1476.41 846.419 1458.62 829.45 1458.62 792.021C1458.62 754.592 1476.41 737.623 1476.41 700.194C1476.41 662.764 1458.62 645.795 1458.62 608.366C1458.62 570.937 1476.41 553.968 1476.41 516.539C1476.41 479.109 1458.62 462.14 1458.62 424.711C1458.62 387.282 1476.41 332.884 1476.41 332.884Z" fill="#06B2A4"/>
<path d="M-9.92797 -25.7747H244.007C244.007 -25.7747 211.643 56.4743 211.643 113.067C211.643 169.659 244.007 195.315 244.007 251.908C244.007 308.5 211.643 334.157 211.643 390.749C211.643 447.341 244.007 472.998 244.007 529.59C244.007 586.182 211.643 611.839 211.643 668.431C211.643 725.023 244.007 750.68 244.007 807.272C244.007 863.865 211.643 889.521 211.643 946.113C211.643 1002.71 244.007 1084.95 244.007 1084.95H-9.92797C-9.92797 1084.95 -42.2921 1002.71 -42.2921 946.113C-42.2921 889.521 -9.92797 863.865 -9.92797 807.272C-9.92797 750.68 -42.2921 725.023 -42.2921 668.431C-42.2921 611.839 -9.92797 586.182 -9.92797 529.59C-9.92797 472.998 -42.2921 447.341 -42.2921 390.749C-42.2921 334.157 -9.92797 308.5 -9.92797 251.908C-9.92797 195.315 -42.2921 169.659 -42.2921 113.067C-42.2921 56.4743 -9.92797 -25.7747 -9.92797 -25.7747Z" fill="#00FFC4"/>
<path d="M1698.8 -25.7747H1952.74C1952.74 -25.7747 1920.37 56.4743 1920.37 113.067C1920.37 169.659 1952.74 195.315 1952.74 251.908C1952.74 308.5 1920.37 334.157 1920.37 390.749C1920.37 447.341 1952.74 472.998 1952.74 529.59C1952.74 586.182 1920.37 611.839 1920.37 668.431C1920.37 725.023 1952.74 750.68 1952.74 807.272C1952.74 863.865 1920.37 889.521 1920.37 946.113C1920.37 1002.71 1952.74 1084.95 1952.74 1084.95H1698.8C1698.8 1084.95 1666.44 1002.71 1666.44 946.113C1666.44 889.521 1698.8 863.865 1698.8 807.272C1698.8 750.68 1666.44 725.023 1666.44 668.431C1666.44 611.839 1698.8 586.182 1698.8 529.59C1698.8 472.998 1666.44 447.341 1666.44 390.749C1666.44 334.157 1698.8 308.5 1698.8 251.908C1698.8 195.315 1666.44 169.659 1666.44 113.067C1666.44 56.4743 1698.8 -25.7747 1698.8 -25.7747Z" fill="#00FFC4"/>
<path d="M1555.65 218.94H1809.59C1809.59 218.94 1777.22 283.068 1777.22 327.192C1777.22 371.316 1809.59 391.32 1809.59 435.444C1809.59 479.567 1777.22 499.572 1777.22 543.695C1777.22 587.819 1809.59 607.823 1809.59 651.947C1809.59 696.071 1777.22 716.075 1777.22 760.199C1777.22 804.323 1809.59 824.327 1809.59 868.451C1809.59 912.575 1777.22 932.579 1777.22 976.703C1777.22 1020.83 1809.59 1084.95 1809.59 1084.95H1555.65C1555.65 1084.95 1523.29 1020.83 1523.29 976.703C1523.29 932.579 1555.65 912.575 1555.65 868.451C1555.65 824.327 1523.29 804.323 1523.29 760.199C1523.29 716.075 1555.65 696.071 1555.65 651.947C1555.65 607.823 1523.29 587.819 1523.29 543.695C1523.29 499.572 1555.65 479.567 1555.65 435.444C1555.65 391.32 1523.29 371.316 1523.29 327.192C1523.29 283.068 1555.65 218.94 1555.65 218.94Z" fill="#FFFF00"/>
<path d="M461.61 696.749H624.163C624.163 696.749 603.446 739.57 603.446 769.033C603.446 798.496 624.163 811.853 624.163 841.316C624.163 870.78 603.446 884.137 603.446 913.6C603.446 943.063 624.163 956.421 624.163 985.884C624.163 1015.35 603.446 1028.7 603.446 1058.17C603.446 1087.63 624.163 1100.99 624.163 1130.45C624.163 1159.91 603.446 1173.27 603.446 1202.74C603.446 1232.2 624.163 1275.02 624.163 1275.02H461.61C461.61 1275.02 440.893 1232.2 440.893 1202.74C440.893 1173.27 461.61 1159.91 461.61 1130.45C461.61 1100.99 440.893 1087.63 440.893 1058.17C440.893 1028.7 461.61 1015.35 461.61 985.884C461.61 956.421 440.893 943.063 440.893 913.6C440.893 884.137 461.61 870.78 461.61 841.316C461.61 811.853 440.893 798.496 440.893 769.033C440.893 739.57 461.61 696.749 461.61 696.749Z" fill="#00FFC4"/>
<path d="M1423.51 552.65H1586.06C1586.06 552.65 1565.34 595.47 1565.34 624.934C1565.34 654.397 1586.06 667.754 1586.06 697.217C1586.06 726.68 1565.34 740.038 1565.34 769.501C1565.34 798.964 1586.06 812.322 1586.06 841.785C1586.06 871.248 1565.34 884.605 1565.34 914.069C1565.34 943.532 1586.06 956.889 1586.06 986.352C1586.06 1015.82 1565.34 1029.17 1565.34 1058.64C1565.34 1088.1 1586.06 1130.92 1586.06 1130.92H1423.51C1423.51 1130.92 1402.79 1088.1 1402.79 1058.64C1402.79 1029.17 1423.51 1015.82 1423.51 986.352C1423.51 956.889 1402.79 943.532 1402.79 914.069C1402.79 884.605 1423.51 871.248 1423.51 841.785C1423.51 812.322 1402.79 798.964 1402.79 769.501C1402.79 740.038 1423.51 726.68 1423.51 697.217C1423.51 667.754 1402.79 654.397 1402.79 624.934C1402.79 595.47 1423.51 552.65 1423.51 552.65Z" fill="#00FFC4"/>
<path d="M591.845 751.585H754.398C754.398 751.585 733.681 794.406 733.681 823.869C733.681 853.332 754.398 866.689 754.398 896.152C754.398 925.616 733.681 938.973 733.681 968.436C733.681 997.899 754.398 1011.26 754.398 1040.72C754.398 1070.18 733.681 1083.54 733.681 1113C733.681 1142.47 754.398 1155.82 754.398 1185.29C754.398 1214.75 733.681 1228.11 733.681 1257.57C733.681 1287.03 754.398 1329.85 754.398 1329.85H591.845C591.845 1329.85 571.128 1287.03 571.128 1257.57C571.128 1228.11 591.845 1214.75 591.845 1185.29C591.845 1155.82 571.128 1142.47 571.128 1113C571.128 1083.54 591.845 1070.18 591.845 1040.72C591.845 1011.26 571.128 997.899 571.128 968.436C571.128 938.973 591.845 925.616 591.845 896.152C591.845 866.689 571.128 853.332 571.128 823.869C571.128 794.406 591.845 751.585 591.845 751.585Z" fill="#FFFF00"/>
<path d="M1169.11 810.693H1331.67C1331.67 810.693 1310.95 853.514 1310.95 882.977C1310.95 912.44 1331.67 925.798 1331.67 955.261C1331.67 984.724 1310.95 998.081 1310.95 1027.54C1310.95 1057.01 1331.67 1070.37 1331.67 1099.83C1331.67 1129.29 1310.95 1142.65 1310.95 1172.11C1310.95 1201.58 1331.67 1214.93 1331.67 1244.4C1331.67 1273.86 1310.95 1287.22 1310.95 1316.68C1310.95 1346.14 1331.67 1388.96 1331.67 1388.96H1169.11C1169.11 1388.96 1148.4 1346.14 1148.4 1316.68C1148.4 1287.22 1169.11 1273.86 1169.11 1244.4C1169.11 1214.93 1148.4 1201.58 1148.4 1172.11C1148.4 1142.65 1169.11 1129.29 1169.11 1099.83C1169.11 1070.37 1148.4 1057.01 1148.4 1027.54C1148.4 998.081 1169.11 984.724 1169.11 955.261C1169.11 925.798 1148.4 912.44 1148.4 882.977C1148.4 853.514 1169.11 810.693 1169.11 810.693Z" fill="#FFFF00"/>
<path d="M1650.59 208.802C1653.52 243.18 1610.99 274.661 1557.41 279.456C1502.79 283.816 1455.89 260.675 1452.96 226.296C1450.03 191.917 1492.03 152.845 1546.14 155.642C1603.39 159.743 1647.22 175.471 1650.59 208.802Z" fill="#FF00CF"/>
<path d="M1748.29 144.794L1624.62 197.648L1625.27 239.311L1747.84 283.233L1748.29 144.794Z" fill="#FF00CF"/>
<path d="M419.535 344.885C416.948 375.209 454.469 402.976 501.723 407.205C549.902 411.051 591.268 390.639 593.854 360.316C596.441 329.993 559.393 295.529 511.666 297.996C461.166 301.614 422.505 315.487 419.535 344.885Z" fill="#FF00CF"/>
<path d="M333.363 288.429L442.446 335.047L441.867 371.796L333.762 410.537L333.363 288.429Z" fill="#FF00CF"/>
<path d="M138.316 332.884H392.25C392.25 332.884 359.886 397.012 359.886 441.136C359.886 485.26 392.25 505.264 392.25 549.387C392.25 593.511 359.886 613.515 359.886 657.639C359.886 701.763 392.25 721.767 392.25 765.891C392.25 810.015 359.886 830.019 359.886 874.143C359.886 918.267 392.25 938.271 392.25 982.395C392.25 1026.52 359.886 1046.52 359.886 1090.65C359.886 1134.77 392.25 1198.9 392.25 1198.9H138.316C138.316 1198.9 105.952 1134.77 105.952 1090.65C105.952 1046.52 138.316 1026.52 138.316 982.395C138.316 938.271 105.952 918.267 105.952 874.143C105.952 830.019 138.316 810.015 138.316 765.891C138.316 721.767 105.952 701.763 105.952 657.639C105.952 613.515 138.316 593.511 138.316 549.387C138.316 505.264 105.952 485.26 105.952 441.136C105.952 397.012 138.316 332.884 138.316 332.884Z" fill="#FFFF00"/>
<circle cx="554.898" cy="253.77" r="16.2299" fill="#00FFC4"/>
<circle cx="1454.86" cy="138.405" r="16.2299" fill="#00FFC4"/>
<circle cx="519.309" cy="195.721" r="11.949" fill="#00FFC4"/>
<circle cx="1494.42" cy="71.4353" r="11.949" fill="#00FFC4"/>
<ellipse cx="562.9" cy="144.763" rx="8.00195" ry="9.16443" fill="#00FFC4"/>
<ellipse cx="1454.87" cy="28.983" rx="8.00195" ry="9.16443" fill="#00FFC4"/>
</g>
</svg>
