<svg width="681" height="221" viewBox="0 0 681 221" fill="none" xmlns="http://www.w3.org/2000/svg">
  <path d="M40 3C20 3 3 20 3 40
           C3 60 15 70 15 90
           C15 110 3 120 3 140
           C3 160 15 170 15 181
           C15 201 20 218 40 218
           L641 218
           C661 218 678 201 678 181
           C678 161 666 151 666 131
           C666 111 678 101 678 81
           C678 61 666 51 666 40
           C666 20 661 3 641 3
           Z"
        stroke="#FFFF00"
        stroke-width="3"
        fill="none"/>
</svg>
