<svg preserveAspectRatio="none" width="100%" height="100%" overflow="visible" style="display: block;" viewBox="0 0 194.433 225.42" fill="none" xmlns="http://www.w3.org/2000/svg">
<g id="Frame 56">
<path id="Subtract" d="M108.976 86.662C130.186 87.1098 148.01 98.9017 154.046 115.028L191.542 96.6649L194.432 95.2499V157.049L191.573 155.709L154.358 138.268C152.159 144.644 148.128 150.372 142.772 155.035L141.604 150.946L141.679 150.583C148.307 144.146 152.228 135.869 152.228 127.08C152.228 107.621 133.019 90.6622 107.724 90.662C82.4285 90.662 63.219 107.621 63.2189 127.08C63.2189 130.016 63.6598 132.894 64.4894 135.667L60.6583 136.937C59.7098 133.782 59.2052 130.48 59.2052 127.08C59.2053 104.75 80.928 86.6483 107.724 86.6483L108.976 86.662ZM155.871 118.603C155.962 119.124 156.071 119.751 156.178 120.439C156.471 122.323 156.789 124.756 156.839 126.725C156.887 128.654 156.701 131.051 156.512 132.91C156.442 133.6 156.367 134.229 156.305 134.748L190.418 150.735V101.685L155.871 118.603Z" fill="var(--fill-0, #FFFF00)"/>
<path id="Vector" d="M131.675 130.058C132.321 129.911 132.907 129.846 133.302 129.897L133.343 129.902L133.384 129.903C137.061 130.092 140.413 132.612 141.808 136.6L141.812 136.611C143.385 140.96 141.81 145.265 138.684 147.606L137.442 148.535L138.735 149.392C140.537 150.585 142.113 152.37 142.895 154.724L142.897 154.732L142.899 154.738C144.487 159.298 142.684 163.98 139.013 166.111L137.413 167.039L138.997 167.992C140.951 169.168 142.334 170.923 143.126 173.113L143.134 173.133C144.111 175.675 143.925 178.199 142.741 180.558V180.559C141.758 182.525 140.199 184.094 138.025 185.08L136.238 185.892L137.869 186.984C139.662 188.184 141.028 189.742 141.81 191.885C142.619 194.519 142.591 197.051 141.436 199.355L141.414 199.397L141.398 199.441C140.636 201.352 139.295 202.702 137.51 203.695L137.467 203.721C137.2 203.886 136.542 204.16 135.718 204.458C134.933 204.742 134.107 205.01 133.59 205.168L133.569 205.174L133.548 205.182L92.4786 219.603L92.42 219.622C90.465 220.274 88.5855 220.898 86.5049 221.314L82.3819 221.931C73.3757 223.221 64.1533 222.358 55.5801 219.361L55.2256 219.236L54.8702 219.357L40.6651 224.163L40.4229 224.245L40.3418 224.325C39.9677 224.316 39.5487 223.997 39.4532 223.622L39.4356 223.553L39.4092 223.487L39.3799 223.402C39.324 223.204 39.3517 223.021 39.4434 222.848C39.5545 222.639 39.7746 222.426 40.0948 222.294L54.7041 217.277L54.7764 217.252L54.8457 217.217C54.8784 217.2 54.9737 217.169 55.1133 217.169C55.2531 217.169 55.3485 217.2 55.3809 217.217L55.4356 217.244L55.4932 217.267C64.4104 220.61 74.2246 221.51 83.5948 219.729C86.2838 219.283 88.9604 218.611 91.6319 217.724L91.6456 217.72L134.957 202.704H135.217L135.423 202.616C137.146 201.879 138.702 200.614 139.497 198.766C140.192 197.15 140.479 195.249 139.871 193.31L139.738 192.922C139.173 191.056 137.617 189.578 135.978 188.644L135.925 188.613L135.869 188.589L135.542 188.455C133.897 187.819 131.985 187.62 130.051 188.338L108.633 195.765L108.396 195.847L108.317 195.925C107.943 195.916 107.524 195.595 107.429 195.221L107.411 195.153L107.386 195.087L107.356 195.001C107.3 194.803 107.328 194.62 107.42 194.446C107.532 194.236 107.755 194.022 108.079 193.89L136.679 183.846L136.678 183.845C138.554 183.286 140.041 181.724 140.98 180.077L141.01 180.025L141.034 179.968C141.729 178.352 142.017 176.452 141.409 174.513L141.275 174.124C139.983 170.104 135.749 168.126 131.793 169.268H131.542L131.369 169.326L102.737 179.16L102.498 179.242L102.418 179.321C102.044 179.312 101.626 178.993 101.53 178.618L101.513 178.549L101.486 178.484L101.457 178.398C101.401 178.2 101.429 178.017 101.521 177.844C101.633 177.632 101.857 177.416 102.184 177.284L137.112 165.057L137.129 165.052L137.145 165.045C140.673 163.684 142.059 159.488 140.851 155.616C139.619 151.672 135.564 149.177 131.988 150.551L97.0547 162.781L97.0323 162.789L97.0108 162.797C96.7801 162.889 96.5689 162.868 96.3711 162.763C96.158 162.65 95.9412 162.424 95.8096 162.094C95.7177 161.863 95.7388 161.651 95.8438 161.453C95.9562 161.242 96.1803 161.027 96.5069 160.895L131.436 148.667L131.448 148.662L136.255 146.912L136.264 146.909L136.273 146.905C139.806 145.543 141.194 141.117 139.974 137.456C138.776 133.862 135.333 131.392 132.045 132.116H131.937C131.674 132.116 131.42 132.178 131.238 132.229C131.042 132.284 130.833 132.357 130.641 132.426C130.231 132.572 129.854 132.713 129.481 132.808L129.452 132.816C128.647 133.045 127.851 133.331 127.249 133.55C126.94 133.663 126.695 133.752 126.508 133.817C126.442 133.839 126.391 133.855 126.355 133.866H126.288L126.113 133.928L66.0166 154.91L65.7803 154.992L65.7032 155.07C65.3292 155.06 64.9101 154.741 64.8145 154.366L64.7852 154.25L64.7315 154.144L64.6924 154.034C64.6296 153.763 64.7623 153.383 65.1153 153.206L65.9043 152.812L65.6856 151.957L61.5362 135.789L61.1426 134.255L59.8487 135.167C56.8 137.316 54.1676 140.01 52.3077 142.148C51.3746 143.22 50.629 144.161 50.1153 144.835C49.8583 145.172 49.6585 145.444 49.5225 145.632C49.4546 145.726 49.4019 145.799 49.3663 145.85C49.3484 145.875 49.3348 145.895 49.3252 145.908C49.3206 145.915 49.3171 145.92 49.3145 145.924C49.3133 145.926 49.3123 145.928 49.3116 145.929L49.3106 145.931H49.3096L49.3057 145.937C42.6388 155.721 40.8384 165.493 40.3838 172.169C40.3832 172.17 40.3835 172.172 40.3829 172.173C40.3605 172.217 40.3043 172.325 40.2588 172.445C40.2209 172.544 40.1778 172.687 40.1612 172.861C40.1111 172.946 40.0757 173.017 40.0538 173.061C40.039 173.09 40.0279 173.107 40.0225 173.117C40.0177 173.122 40.0134 173.128 40.0088 173.132C39.995 173.145 39.9824 173.158 39.9698 173.17C39.9441 173.195 39.9218 173.217 39.9014 173.236C39.8962 173.24 39.8904 173.244 39.8858 173.248L39.795 173.28L2.64457 186.17L2.40727 186.253L2.32817 186.33C1.83773 186.325 1.37273 186.09 1.11625 185.776C1.06852 185.587 1.09725 185.411 1.18559 185.244C1.29666 185.035 1.51594 184.823 1.83598 184.691L37.6446 172.245L38.3077 172.015L38.3731 171.316C39.0185 164.451 41.1642 154.805 47.5938 145.16L47.6338 145.101L47.6651 145.035C47.6515 145.063 47.7051 144.966 47.8887 144.695C48.0513 144.456 48.2851 144.125 48.584 143.721C49.1819 142.914 50.0371 141.825 51.1075 140.608C53.2332 138.19 56.1789 135.301 59.6231 133.088L62.0967 132.237L67.7305 151.023L68.0586 152.117L69.1368 151.74L125.521 132.072L125.532 132.069L125.545 132.064H125.546C125.547 132.063 125.548 132.063 125.549 132.063C125.552 132.062 125.556 132.06 125.563 132.058C125.575 132.053 125.594 132.045 125.618 132.036C125.667 132.018 125.74 131.992 125.832 131.958C126.016 131.891 126.278 131.797 126.586 131.69C127.206 131.474 128.003 131.209 128.738 130.999L128.832 130.973L128.92 130.93C129.059 130.862 129.156 130.828 129.317 130.781C129.491 130.731 129.751 130.662 130.115 130.534L130.136 130.528L130.156 130.52C130.478 130.392 131.052 130.199 131.675 130.058Z" fill="var(--fill-0, #FFFF00)" stroke="var(--stroke-0, #FFFF00)" stroke-width="2.18533"/>
<path id="Vector_2" d="M28.4048 90.0468C28.8069 89.8491 29.4448 89.9455 29.7876 90.4735C29.9713 90.8839 29.8614 91.5158 29.3208 91.8466C23.5851 94.8504 19.7187 100.127 17.9028 106.247L17.897 106.266L17.8921 106.284C16.304 112.415 16.9721 119.038 20.1636 124.543C20.3604 124.946 20.2634 125.583 19.7339 125.925C19.6141 125.983 19.5639 125.995 19.5366 126C19.4796 126.01 19.4107 126.013 19.1714 126.013C18.7809 126.012 18.5344 125.905 18.3501 125.645C15.0126 119.574 14.1866 112.456 16.0669 105.761C17.9503 99.0539 22.3477 93.4037 28.4048 90.0468Z" fill="var(--fill-0, #FFFF00)" stroke="var(--stroke-0, #FFFF00)" stroke-width="2.18533"/>
<path id="Vector_3" d="M34.9531 101.422C35.3547 101.219 35.9988 101.313 36.3438 101.845C36.5165 102.23 36.4302 102.813 35.9697 103.156L35.8692 103.223C30.5631 106.367 28.8707 112.894 31.7432 118.199H31.7442C31.9475 118.602 31.851 119.247 31.3154 119.592C31.1968 119.649 31.1471 119.661 31.1201 119.666C31.0631 119.675 30.9949 119.679 30.7559 119.679C30.3142 119.679 29.98 119.482 29.7158 119.093C26.1226 112.856 28.3305 104.841 34.9531 101.422Z" fill="var(--fill-0, #FFFF00)" stroke="var(--stroke-0, #FFFF00)" stroke-width="2.18533"/>
<path id="Vector_4" d="M169.384 180.077C169.792 179.894 170.42 180.003 170.752 180.536C174.105 186.615 174.938 193.746 173.055 200.454C171.171 207.161 166.771 212.811 160.713 216.168C160.573 216.238 160.517 216.251 160.488 216.255C160.431 216.265 160.363 216.268 160.124 216.268C159.696 216.268 159.37 216.083 159.109 215.716C158.94 215.304 159.057 214.685 159.594 214.362C165.072 211.169 169.167 206.148 171.211 199.777L171.221 199.748L171.228 199.717C172.817 193.585 172.148 186.96 168.954 181.454C168.761 181.051 168.858 180.418 169.384 180.077Z" fill="var(--fill-0, #FFFF00)" stroke="var(--stroke-0, #FFFF00)" stroke-width="2.18533"/>
<path id="Vector_5" d="M157.809 186.633C158.217 186.451 158.845 186.559 159.177 187.092C162.578 193.328 160.384 201.167 154.143 204.813C154.013 204.877 153.96 204.889 153.932 204.894C153.875 204.903 153.806 204.907 153.568 204.907C153.359 204.906 153.23 204.871 153.141 204.823C153.062 204.779 152.936 204.683 152.804 204.418L152.802 204.414L152.767 204.334C152.609 203.922 152.732 203.318 153.26 203L153.259 202.999C158.566 199.856 160.258 193.33 157.385 188.025H157.386C157.183 187.623 157.277 186.978 157.809 186.633Z" fill="var(--fill-0, #FFFF00)" stroke="var(--stroke-0, #FFFF00)" stroke-width="2.18533"/>
<path id="Vector 8" d="M109.844 88.8602L109.844 8.77223e-08" stroke="var(--stroke-0, #FFFF00)" stroke-width="4.01371"/>
</g>
</svg>
