<svg preserveAspectRatio="none" width="100%" height="100%" overflow="visible" style="display: block;" viewBox="0 0 134.625 285.472" fill="none" xmlns="http://www.w3.org/2000/svg">
<g id="Frame 80">
<rect id="Rectangle 13" x="47.0274" y="119.184" width="14.4773" height="166.33" transform="rotate(10.1148 47.0274 119.184)" fill="var(--fill-0, #150059)"/>
<circle id="Ellipse 12" cx="67.3128" cy="67.3125" r="67.3125" fill="var(--fill-0, #FFFF00)"/>
<path id="Vector 16" d="M90.3116 71.5841C91.1143 75.0463 91.0879 81.1089 88.6778 86.0542C87.4595 88.6731 85.8072 90.9157 84.3403 92.4584C84.2645 92.539 84.1882 92.6191 84.1115 92.6985C83.1173 93.7208 82.1003 94.6257 80.8267 95.5546C77.8204 97.5809 73.0663 100.808 62.8693 100.506C59.9282 100.414 57.0228 99.9453 54.2156 99.1487C49.5438 97.8204 45.1337 95.5875 41.3163 92.547C19.6302 74.8253 33.429 38.6151 58.1793 33.6012C59.7936 33.2032 61.3753 32.8983 63.0119 32.6769C63.3966 32.6204 63.773 32.57 64.1786 32.5217C71.8822 31.3431 81.7351 33.6711 86.8762 36.9646C93.525 40.9508 96.8266 45.1667 99.2612 48.5763C105.902 57.9191 108.861 69.5516 107.861 80.8382C106.988 93.5267 99.259 105.599 88.1335 111.65C81.6082 115.362 74.2527 117.368 66.8807 118.006C61.2285 118.493 55.5451 118.187 49.9793 117.188C48.8041 116.977 47.6451 116.702 46.5042 116.369C42.5802 115.272 39.073 113.541 36.0863 111.602C31.8731 108.863 28.6504 105.734 26.2639 102.97C20.42 96.3123 16.1345 87.1286 14.2141 80.0271C13.8878 78.8682 13.6119 77.7643 13.3796 76.7394C12.0017 71.0549 11.3783 65.1633 11.6845 59.2745C11.7291 58.8829 11.7789 58.4891 11.8341 58.0899C12.6118 53.1658 13.3382 46.8229 18.0406 38.2278C19.6949 35.3055 21.9024 32.1742 24.9463 29.1036C25.7362 28.3074 26.5631 27.5158 27.4447 26.7199C30.1936 24.2623 31.8068 23.2476 33.1058 22.4083C33.4897 22.1649 33.8513 21.9411 34.2157 21.7144C35.4727 20.9336 36.7276 20.03 38.2759 19.0249C40.2778 17.7332 42.77 16.249 46.3398 14.9533C57.7887 11.064 63.2289 11.0301 67.2226 10.5652C68.405 10.4751 69.4802 10.4259 70.5826 10.4298C74.1597 10.4076 79.2359 11.1805 82.918 12.2863C85.8566 13.0759 91.6607 14.9765 95.7917 17.0984C97.3669 17.8777 99.423 19.0609 101.714 20.6584C104.057 22.2895 106.64 24.3618 109.206 26.797C109.233 26.8228 109.26 26.8487 109.287 26.8746C115.777 33.2208 118.13 37.558 120.084 40.866C120.624 41.828 121.102 42.7361 121.561 43.6529C123.017 46.5478 124.554 50.2772 125.729 54.1723C127.158 58.8302 128.047 63.7052 128.484 67.4381C129.412 77.1386 128.466 86.9867 125.738 96.3105C124.346 101.105 122.285 105.464 120.385 108.425C118.481 111.395 117.001 112.769 116.534 112.5C116.052 112.215 116.599 110.322 117.706 107.125C118.814 103.93 120.301 99.6586 121.53 95.1192C124.029 85.9776 124.711 76.3567 123.551 66.9885C122.141 55.5893 117.979 44.4818 111.034 35.4609C109.528 33.5059 107.893 31.6554 106.137 29.9339C102.212 26.0841 97.7303 22.8371 92.8482 20.3525C92.1196 19.9814 91.3797 19.6258 90.6363 19.2896C84.4906 16.6402 77.8787 15.4364 73.2229 15.1263C69.3736 14.8527 66.5523 14.9012 64.1387 15.0311C62.4792 15.1276 61.0105 15.2807 59.54 15.532C58.7494 15.6677 57.6771 15.8724 56.3906 16.1744C51.1312 17.3094 42.4709 20.6346 35.6405 25.5C33.0821 27.2644 30.308 29.4757 27.7846 31.9065C27.2983 32.3734 26.8282 32.8479 26.3761 33.3272C22.3477 37.5322 19.7895 42.4788 18.8395 45.0581C17.0885 49.5792 15.9007 55.0817 15.6276 60.0375C15.3339 64.7634 15.7723 68.9305 16.2277 71.2477C16.7822 74.0162 17.2313 76.3816 18.2095 79.8318C18.906 82.2183 19.8607 85.1326 21.6654 88.8779C23.77 93.185 25.6344 96.0429 27.3136 98.3783C29.7193 101.633 31.7522 103.971 35.3337 106.737C39.3264 109.804 44.045 112.078 47.945 113.167C48.768 113.406 49.6573 113.619 50.5964 113.791C51.7146 113.995 52.8761 114.172 54.0814 114.32C57.0488 114.686 60.192 114.834 63.058 114.81C65.421 114.792 67.3756 114.716 69.1077 114.584C69.6448 114.543 70.1646 114.494 70.6655 114.438C72.523 114.137 74.3777 113.734 76.1898 113.229C76.4771 113.132 76.7824 113.024 77.0976 112.91C78.6732 112.335 80.5878 111.561 82.8643 110.465C86.4649 108.715 89.4567 106.882 92.2996 104.539C94.4984 102.709 96.6036 100.553 98.4996 97.7102C99.7915 95.7758 101.007 93.4055 101.902 90.9389C103.256 87.2815 103.857 83.4295 104.12 80.7646C104.128 80.6857 104.137 80.6076 104.145 80.5302C104.241 79.6226 104.342 78.8269 104.425 78.0337C104.425 78.0299 104.426 78.0261 104.426 78.0223C104.432 77.9638 104.438 77.9051 104.444 77.8466C104.533 71.257 103.156 64.647 100.453 58.6664C100.208 58.1549 99.9497 57.6386 99.685 57.1359C98.3974 54.6704 96.8698 52.4484 95.7482 51.1113C94.5597 49.655 91.5207 45.9517 87.4454 43.1656C84.8069 41.3157 81.7902 39.8835 79.2216 39.0856C77.7181 38.6112 76.2941 38.1691 74.7952 37.8177C73.3894 37.4903 71.9147 37.245 70.2957 37.192C69.4704 37.1654 68.6057 37.1865 67.6602 37.2494C66.815 37.3058 65.9748 37.3918 65.0505 37.5083C64.2014 37.6162 62.3108 37.807 59.9094 38.3434C59.749 38.3792 59.5858 38.4165 59.4201 38.4555C58.0729 38.7714 56.6131 39.2099 55.1422 39.7946C50.7994 41.6389 46.938 44.4882 43.8686 48.0554C43.2696 48.8309 42.8036 49.5517 42.4862 50.1462C42.2572 50.5746 42.0911 50.9581 41.9288 51.3517C41.7093 51.8874 41.4923 52.4442 41.1659 53.182C40.9108 53.7574 40.5824 54.4165 40.3263 54.8407C40.2066 55.0381 40.1015 55.1831 40.0068 55.3155C39.8985 55.4672 39.8028 55.6034 39.7164 55.7859C39.6543 55.9174 39.6087 56.0632 39.554 56.2424C39.4672 56.5288 39.3561 56.8998 39.1353 57.4394C38.3091 59.4511 37.5794 61.8263 37.1712 64.2054C36.7046 66.849 36.65 69.4799 36.861 71.5318C37.0732 73.8284 37.672 77.0866 39.0446 80.0433C39.9817 82.1098 41.2637 84.0062 42.5792 85.4507C43.3329 86.284 44.1818 87.0598 45.1074 87.7707C45.7677 88.2784 46.4506 88.7529 47.1433 89.1937C49.1598 90.4801 51.2502 91.4573 53.0482 92.2306C53.4128 92.3878 53.8411 92.6384 54.3975 92.9365C54.7915 93.1475 55.248 93.3814 55.7867 93.6157C58.2163 94.3055 60.7252 94.7073 63.2297 94.7817C63.3181 94.7727 63.4091 94.7632 63.5001 94.753C63.5016 94.7528 63.503 94.7525 63.5044 94.7523C65.5628 94.5013 68.3018 94.066 71.9379 93.0679C72.8614 92.8045 73.4534 92.6545 73.9877 92.51C74.5112 92.3647 74.9807 92.2208 75.6007 91.8861C76.3039 91.5046 77.0678 90.9423 77.827 90.2653C78.8985 89.3139 79.9474 88.1376 80.9742 86.9189C81.0439 86.8365 81.1185 86.747 81.1952 86.6525C81.8031 85.9071 82.5751 84.8147 83.2961 83.5581C83.4432 83.305 83.587 83.0458 83.7266 82.7829C85.6558 78.0849 85.4146 72.4015 83.4566 67.5075C81.19 61.6487 75.9416 56.7442 69.862 57.1003C67.5348 57.1837 65.3327 58.0101 63.6161 59.5239C60.5904 62.1368 59.3687 66.318 59.4554 69.2944C59.5073 72.3204 60.4675 74.0451 60.0018 74.3898C59.6652 74.7245 57.5821 73.506 56.551 69.7244C55.5311 66.0584 56.4162 60.2 60.6861 56.2778C63.0943 54.0253 66.3851 52.7136 69.6146 52.531C75.5598 52.0452 81.3239 55.3478 84.7126 59.7646C85.0034 60.1206 85.2812 60.4825 85.5482 60.8526C87.5231 63.608 88.8749 66.4625 89.7763 69.4743C89.9816 70.1674 90.1607 70.8702 90.3116 71.5841Z" fill="var(--stroke-0, #150059)"/>
</g>
</svg>
