<svg preserveAspectRatio="none" width="100%" height="100%" overflow="visible" style="display: block;" viewBox="0 0 167.149 354.437" fill="none" xmlns="http://www.w3.org/2000/svg">
<g id="Frame 68">
<rect id="Rectangle 13" x="58.387" y="147.977" width="17.9748" height="206.513" transform="rotate(10.1148 58.387 147.977)" fill="var(--fill-0, #150059)"/>
<circle id="Ellipse 12" cx="83.5745" cy="83.5741" r="83.5741" fill="var(--fill-0, #FFFF00)"/>
<path id="Vector 16" d="M112.129 88.8775C113.126 93.1761 113.093 100.703 110.1 106.843C108.588 110.095 106.536 112.879 104.715 114.795C104.621 114.895 104.526 114.994 104.431 115.093C103.197 116.362 101.934 117.486 100.353 118.639C96.6201 121.155 90.7175 125.162 78.057 124.787C74.4054 124.672 70.798 124.09 67.3127 123.101C61.5123 121.452 56.0368 118.68 51.2971 114.905C24.372 92.9018 41.5044 47.9438 72.234 41.7186C74.2383 41.2244 76.2021 40.8459 78.2341 40.571C78.7118 40.5009 79.1791 40.4383 79.6827 40.3783C89.2474 38.915 101.481 41.8053 107.864 45.8945C116.119 50.8437 120.218 56.0781 123.241 60.3115C131.486 71.9113 135.16 86.3541 133.918 100.367C132.834 116.121 123.238 131.11 109.425 138.622C101.323 143.232 92.1905 145.722 83.0375 146.514C76.0199 147.119 68.9635 146.739 62.0531 145.498C60.5939 145.236 59.1549 144.896 57.7384 144.482C52.8665 143.12 48.5119 140.971 44.8037 138.563C39.5726 135.163 35.5713 131.277 32.6084 127.846C25.3526 119.58 20.0319 108.177 17.6476 99.3603C17.2424 97.9213 16.8998 96.5507 16.6114 95.2783C14.9006 88.2205 14.1266 80.9056 14.5068 73.5941C14.5622 73.1079 14.624 72.619 14.6926 72.1233C15.6581 66.0097 16.5601 58.1345 22.3984 47.4628C24.4525 43.8346 27.1932 39.9469 30.9724 36.1344C31.9532 35.1458 32.9798 34.163 34.0745 33.1749C37.4874 30.1235 39.4903 28.8638 41.1032 27.8217C41.5798 27.5194 42.0287 27.2416 42.4812 26.9601C44.0418 25.9906 45.6 24.8688 47.5223 23.6208C50.0078 22.0171 53.1021 20.1744 57.5343 18.5657C71.7491 13.7367 78.5035 13.6946 83.462 13.1174C84.9301 13.0056 86.265 12.9444 87.6337 12.9493C92.075 12.9217 98.3775 13.8814 102.949 15.2543C106.598 16.2347 113.804 18.5945 118.933 21.2289C120.889 22.1965 123.442 23.6655 126.286 25.649C129.195 27.6742 132.402 30.247 135.587 33.2706C135.621 33.3027 135.655 33.3348 135.689 33.3669C143.747 41.2462 146.668 46.6313 149.094 50.7384C149.764 51.9328 150.358 53.0604 150.928 54.1986C152.736 57.7928 154.643 62.4232 156.103 67.2593C157.877 73.0425 158.981 79.0952 159.524 83.7299C160.676 95.7739 159.501 108.001 156.114 119.578C154.386 125.53 151.826 130.942 149.468 134.618C147.103 138.307 145.267 140.013 144.686 139.678C144.087 139.324 144.767 136.973 146.142 133.004C147.517 129.038 149.363 123.734 150.89 118.098C153.992 106.748 154.839 94.8032 153.399 83.1717C151.648 69.0187 146.48 55.2278 137.857 44.0276C135.988 41.6002 133.958 39.3027 131.777 37.1653C126.905 32.3854 121.34 28.354 115.278 25.2692C114.374 24.8084 113.455 24.3669 112.532 23.9495C104.902 20.6601 96.6925 19.1654 90.912 18.7805C86.1327 18.4407 82.6299 18.5009 79.6331 18.6623C77.5727 18.782 75.7492 18.9721 73.9234 19.2841C72.9419 19.4527 71.6105 19.7068 70.0132 20.0817C63.4832 21.4909 52.7307 25.6194 44.2502 31.6603C41.0738 33.8509 37.6295 36.5964 34.4964 39.6145C33.8926 40.1941 33.309 40.7832 32.7477 41.3783C27.746 46.5993 24.5698 52.7408 23.3903 55.9433C21.2164 61.5566 19.7415 68.3884 19.4025 74.5415C19.0379 80.409 19.5822 85.5828 20.1476 88.4599C20.836 91.8972 21.3937 94.8341 22.6082 99.1178C23.4729 102.081 24.6583 105.699 26.899 110.349C29.512 115.697 31.8267 119.245 33.9116 122.145C36.8985 126.186 39.4225 129.089 43.8692 132.523C48.8265 136.331 54.6851 139.154 59.5273 140.507C60.549 140.803 61.6533 141.067 62.8193 141.281C64.2075 141.534 65.6497 141.754 67.1461 141.937C70.8304 142.392 74.7329 142.575 78.2914 142.546C81.2252 142.523 83.6521 142.429 85.8026 142.265C86.4694 142.214 87.1148 142.154 87.7367 142.085C90.0429 141.71 92.3457 141.21 94.5956 140.583C94.9522 140.462 95.3314 140.329 95.7227 140.187C97.6789 139.474 100.056 138.512 102.882 137.152C107.353 134.979 111.068 132.703 114.597 129.794C117.327 127.522 119.941 124.844 122.295 121.315C123.899 118.914 125.408 115.971 126.519 112.908C128.201 108.367 128.947 103.585 129.274 100.276C129.284 100.178 129.294 100.081 129.304 99.9849C129.423 98.858 129.549 97.8701 129.651 96.8853C129.652 96.8805 129.653 96.8759 129.653 96.8711C129.661 96.7985 129.668 96.7257 129.675 96.6531C129.786 88.4715 128.077 80.2646 124.72 72.8392C124.417 72.2041 124.095 71.5631 123.767 70.9389C122.168 67.8778 120.272 65.119 118.879 63.4588C117.403 61.6507 113.63 57.0528 108.57 53.5936C105.294 51.2968 101.549 49.5186 98.3599 48.5279C96.4931 47.9389 94.7251 47.39 92.8641 46.9537C91.1187 46.5472 89.2877 46.2427 87.2776 46.1769C86.2529 46.1438 85.1793 46.1701 84.0055 46.2481C82.956 46.3181 81.9128 46.4249 80.7652 46.5696C79.711 46.7036 77.3636 46.9404 74.3821 47.6064C74.1829 47.6508 73.9804 47.6972 73.7746 47.7456C72.1019 48.1378 70.2894 48.6823 68.4632 49.4082C63.0713 51.698 58.2771 55.2357 54.4661 59.6647C53.7224 60.6275 53.1438 61.5224 52.7497 62.2605C52.4654 62.7925 52.2592 63.2686 52.0577 63.7573C51.7851 64.4224 51.5157 65.1137 51.1104 66.0297C50.7937 66.7441 50.386 67.5626 50.068 68.0892C49.9194 68.3342 49.789 68.5143 49.6714 68.6787C49.5369 68.867 49.4181 69.0361 49.3108 69.2628C49.2337 69.426 49.177 69.607 49.1092 69.8295C49.0014 70.1851 48.8635 70.6457 48.5893 71.3156C47.5635 73.8134 46.6576 76.7624 46.1507 79.7162C45.5714 82.9985 45.5036 86.265 45.7656 88.8127C46.029 91.664 46.7725 95.7093 48.4766 99.3804C49.6402 101.946 51.2319 104.301 52.8651 106.094C53.801 107.129 54.855 108.092 56.0042 108.975C56.824 109.605 57.6718 110.194 58.5319 110.741C61.0355 112.339 63.631 113.552 65.8633 114.512C66.316 114.707 66.8478 115.018 67.5386 115.388C68.0278 115.65 68.5946 115.941 69.2634 116.232C72.28 117.088 75.395 117.587 78.5045 117.679C78.6143 117.668 78.7273 117.656 78.8403 117.644C78.8421 117.643 78.8439 117.643 78.8456 117.643C81.4013 117.331 84.802 116.791 89.3165 115.551C90.4631 115.224 91.1981 115.038 91.8614 114.859C92.5115 114.678 93.0943 114.5 93.8641 114.084C94.7372 113.61 95.6857 112.912 96.6283 112.072C97.9587 110.891 99.261 109.43 100.536 107.917C100.622 107.815 100.715 107.704 100.81 107.586C101.565 106.661 102.523 105.304 103.419 103.744C103.601 103.43 103.78 103.108 103.953 102.782C106.348 96.9489 106.049 89.8924 103.618 83.8161C100.804 76.5419 94.2875 70.4525 86.7391 70.8947C83.8497 70.9983 81.1156 72.0243 78.9843 73.9038C75.2276 77.148 73.7108 82.3392 73.8184 86.0347C73.8829 89.7918 75.0751 91.9331 74.4969 92.361C74.0789 92.7766 71.4926 91.2638 70.2123 86.5686C68.946 82.0169 70.0449 74.7432 75.3464 69.8735C78.3364 67.0768 82.4222 65.4483 86.4319 65.2215C93.8134 64.6184 100.97 68.7188 105.177 74.2026C105.538 74.6446 105.883 75.0939 106.215 75.5535C108.667 78.9746 110.345 82.5187 111.464 86.2581C111.719 87.1186 111.942 87.9912 112.129 88.8775Z" fill="var(--stroke-0, #FF00CF)"/>
</g>
</svg>
